<svg width="32" height="33" viewBox="0 0 32 33" fill="none" xmlns="http://www.w3.org/2000/svg">
<path d="M25.3333 14.926H12L16.3866 10.5393C16.5116 10.4153 16.6108 10.2679 16.6785 10.1054C16.7462 9.94292 16.781 9.76864 16.781 9.59263C16.781 9.41661 16.7462 9.24234 16.6785 9.07986C16.6108 8.91738 16.5116 8.76991 16.3866 8.64596C16.1368 8.39763 15.7989 8.25824 15.4466 8.25824C15.0944 8.25824 14.7564 8.39763 14.5066 8.64596L8.78662 14.3793C8.28584 14.8771 8.00293 15.5532 7.99995 16.2593C8.00644 16.9608 8.28908 17.6314 8.78662 18.126L14.5066 23.8593C14.6309 23.9827 14.7784 24.0805 14.9404 24.1469C15.1025 24.2134 15.2761 24.2473 15.4513 24.2467C15.6265 24.2461 15.7999 24.2109 15.9615 24.1433C16.1231 24.0757 16.2698 23.9769 16.3933 23.8526C16.5167 23.7283 16.6145 23.5809 16.6809 23.4188C16.7474 23.2567 16.7813 23.0831 16.7807 22.9079C16.7801 22.7327 16.745 22.5594 16.6773 22.3977C16.6097 22.2361 16.5109 22.0894 16.3866 21.9659L12 17.5926H25.3333C25.6869 17.5926 26.026 17.4521 26.2761 17.2021C26.5261 16.952 26.6666 16.6129 26.6666 16.2593C26.6666 15.9057 26.5261 15.5665 26.2761 15.3165C26.026 15.0664 25.6869 14.926 25.3333 14.926Z" fill="white"/>
</svg>
