<svg width="24" height="25" viewBox="0 0 24 25" fill="none" xmlns="http://www.w3.org/2000/svg">
<g clip-path="url(#clip0_819_80)">
<path d="M17.5 1.93042C16.3739 1.94793 15.2724 2.26227 14.3068 2.84169C13.3411 3.42111 12.5453 4.24509 12 5.23042C11.4546 4.24509 10.6589 3.42111 9.69323 2.84169C8.72753 2.26227 7.62604 1.94793 6.49999 1.93042C4.70493 2.00841 3.01369 2.79367 1.79577 4.11465C0.577848 5.43563 -0.0677617 7.18495 -1.11917e-05 8.98042C-1.11917e-05 13.5274 4.78599 18.4934 8.79999 21.8604C9.69621 22.6136 10.8293 23.0264 12 23.0264C13.1706 23.0264 14.3038 22.6136 15.2 21.8604C19.214 18.4934 24 13.5274 24 8.98042C24.0677 7.18495 23.4221 5.43563 22.2042 4.11465C20.9863 2.79367 19.295 2.00841 17.5 1.93042ZM13.915 20.3304C13.379 20.7818 12.7007 21.0293 12 21.0293C11.2992 21.0293 10.621 20.7818 10.085 20.3304C4.94699 16.0194 1.99999 11.8834 1.99999 8.98042C1.93163 7.71514 2.36635 6.47415 3.20935 5.52812C4.05235 4.58209 5.23522 4.00777 6.49999 3.93042C7.76476 4.00777 8.94763 4.58209 9.79063 5.52812C10.6336 6.47415 11.0683 7.71514 11 8.98042C11 9.24564 11.1053 9.49999 11.2929 9.68753C11.4804 9.87506 11.7348 9.98042 12 9.98042C12.2652 9.98042 12.5196 9.87506 12.7071 9.68753C12.8946 9.49999 13 9.24564 13 8.98042C12.9316 7.71514 13.3664 6.47415 14.2094 5.52812C15.0523 4.58209 16.2352 4.00777 17.5 3.93042C18.7648 4.00777 19.9476 4.58209 20.7906 5.52812C21.6336 6.47415 22.0683 7.71514 22 8.98042C22 11.8834 19.053 16.0194 13.915 20.3264V20.3304Z" fill="#181818"/>
</g>
<defs>
<clipPath id="clip0_819_80">
<rect width="24" height="24" fill="white" transform="translate(0 0.013916)"/>
</clipPath>
</defs>
</svg>
